<?xml version="1.0" standalone="no"?><!DOCTYPE svg PUBLIC "-//W3C//DTD SVG 1.1//EN" "http://www.w3.org/Graphics/SVG/1.1/DTD/svg11.dtd"><svg class="icon" height="512" viewBox="0 0 1024 1024" version="1.1" xmlns="http://www.w3.org/2000/svg"><path d="M404.145127 624.138386C402.959441 631.091346 416.984496 780.756992 163.365793 899.821495 133.321286 913.940261 119.802602 951.053678 133.136216 982.751963 143.014887 1006.210706 164.740868 1020.094318 187.543699 1020.094318 195.638803 1020.094318 203.810615 1018.371438 211.680373 1014.681381 418.431488 917.628123 488.994652 799.547026 511.833926 717.756123 583.84504 752.632832 692.587125 827.480649 711.343368 966.116352 715.984479 1000.479598 746.177617 1024.334409 778.675968 1019.469312 811.207885 1014.523392 833.787286 982.712466 829.145213 948.347026 802.640088 752.355621 658.369002 650.695095 562.554687 604.026295 549.677638 570.028398 542.81121 542.068809 539.545385 518.972489 619.39768 561.712421 723.557987 582.266295 832.860021 524.511232 862.236171 509.019209 874.156358 471.278592 859.449586 440.210432 844.779253 409.177381 809.015816 396.586935 779.639673 412.120649 634.132093 489.011346 511.984472 343.192283 507.006779 337.153609 493.452618 320.403163 472.581025 312.282112 451.968337 315.930478 363.616472 331.505518 196.605382 409.844809 196.567026 595.164672 196.567026 629.843895 223.195901 658.009746 256.062472 658.009746 288.930963 658.009746 315.559838 629.885586 315.558879 595.164672 315.558879 530.855643 355.26452 491.915849 394.630188 469.117221 392.914001 505.331346 396.747107 548.703232 410.369156 599.671003 410.369156 599.671003 406.287276 611.576832 404.145127 624.138386ZM623.598318 126.751232C623.598318 196.737243 569.859193 253.501586 503.604404 253.501586 437.349614 253.501586 383.608573 196.737243 383.608573 126.751232 383.608573 56.764489 437.349614 0.000146 503.604404 0.000146 569.859193 0.000146 623.598318 56.764489 623.598318 126.751232L623.598318 126.751232Z" /></svg>